HIERARCHY
ROOT root
{
	OFFSET	0	13.1	24.9
	CHANNELS 6  Xposition Yposition Zposition Xrotation Yrotation Zrotation
	JOINT spine_1
	{
		OFFSET	0	9.99999	0
		CHANNELS 3  Xrotation Yrotation Zrotation
		JOINT spine_2
		{
			OFFSET	0	112	-10
			CHANNELS 3  Xrotation Yrotation Zrotation
			JOINT spine_3
			{
				OFFSET	0	206.5	19.3
				CHANNELS 3  Xrotation Yrotation Zrotation
				JOINT spine_4
				{
					OFFSET	0	110.4	14.6
					CHANNELS 3  Xrotation Yrotation Zrotation
					JOINT neck_1
					{
						OFFSET	0	71.8	-50.3
						CHANNELS 3  Xrotation Yrotation Zrotation
						JOINT neck_2
						{
							OFFSET	0	86.2	-25.8
							CHANNELS 3  Xrotation Yrotation Zrotation
							JOINT head_ee
							{
								OFFSET	0	179.8	-8.7
								CHANNELS 3  Xrotation Yrotation Zrotation
								End Site
								{
									OFFSET	1	0	0
								}
							}
						}
					}
					JOINT left_clavicle
					{
						OFFSET	-43.2	22.4	-70.8
						CHANNELS 3  Xrotation Yrotation Zrotation
						JOINT left_shoulder
						{
							OFFSET	-93.9	-5.79999	48.7
							CHANNELS 3  Xrotation Yrotation Zrotation
							JOINT left_elbow
							{
								OFFSET	-291.4	-30.8	15.2
								CHANNELS 3  Xrotation Yrotation Zrotation
								JOINT left_lowarm_twist
								{
									OFFSET	-110.7	-3.89999	13.6
									CHANNELS 3  Xrotation Yrotation Zrotation
									JOINT left_hand
									{
										OFFSET	-110.7	-3.89999	13.6
										CHANNELS 3  Xrotation Yrotation Zrotation
										JOINT left_ee
										{
											OFFSET	-80.8	-5.10001	12.1
											CHANNELS 3  Xrotation Yrotation Zrotation
											End Site
											{
												OFFSET	1	0	0
											}
										}
									}
								}
							}
						}
					}
					JOINT right_clavicle
					{
						OFFSET	43.2	22.4	-70.8
						CHANNELS 3  Xrotation Yrotation Zrotation
						JOINT right_shoulder
						{
							OFFSET	93.9	-5.79999	48.7
							CHANNELS 3  Xrotation Yrotation Zrotation
							JOINT right_elbow
							{
								OFFSET	291.4	-30.8	15.2
								CHANNELS 3  Xrotation Yrotation Zrotation
								JOINT right_lowarm_twist
								{
									OFFSET	110.7	-3.89999	13.6
									CHANNELS 3  Xrotation Yrotation Zrotation
									JOINT right_hand
									{
										OFFSET	110.7	-3.89999	13.6
										CHANNELS 3  Xrotation Yrotation Zrotation
										JOINT right_ee
										{
											OFFSET	80.8	-5.10001	12.1
											CHANNELS 3  Xrotation Yrotation Zrotation
											End Site
											{
												OFFSET	1	0	0
											}
										}
									}
								}
							}
						}
					}
				}
			}
		}
	}
	JOINT left_hip
	{
		OFFSET	-82.8	-127.5	0.300001
		CHANNELS 3  Xrotation Yrotation Zrotation
		JOINT left_knee
		{
			OFFSET	-28.2	-396.7	2.2
			CHANNELS 3  Xrotation Yrotation Zrotation
			JOINT left_ankle
			{
				OFFSET	-11.7	-411.3	35.4
				CHANNELS 3  Xrotation Yrotation Zrotation
				JOINT left_toes
				{
					OFFSET	0	-60	-88.6
					CHANNELS 3  Xrotation Yrotation Zrotation
					JOINT left_foot_ee
					{
						OFFSET	-22.5	-16.5	-42.2
						CHANNELS 3  Xrotation Yrotation Zrotation
						End Site
						{
							OFFSET	1	0	0
						}
					}
				}
			}
		}
	}
	JOINT right_hip
	{
		OFFSET	82.8	-127.5	0.300001
		CHANNELS 3  Xrotation Yrotation Zrotation
		JOINT right_knee
		{
			OFFSET	28.2	-396.7	2.2
			CHANNELS 3  Xrotation Yrotation Zrotation
			JOINT right_ankle
			{
				OFFSET	11.7	-411.3	35.4
				CHANNELS 3  Xrotation Yrotation Zrotation
				JOINT right_toes
				{
					OFFSET	0	-60	-88.6
					CHANNELS 3  Xrotation Yrotation Zrotation
					JOINT right_foot_ee
					{
						OFFSET	22.5	-16.5	-42.2
						CHANNELS 3  Xrotation Yrotation Zrotation
						End Site
						{
							OFFSET	1	0	0
						}
					}
				}
			}
		}
	}
}
MOTION
Frames: 5
Frame Time: 0.02
1372.05 701.618 -1475.22 -2.33133905794 57.9320136451 4.6451034203 0.676721 0.140571 1.34485 0.677726 0.0547176 1.35107 0.679325 -0.214688 1.33503 0.676837 -0.00117086 1.35218 -10.7739 15.4575 -2.61975 -11.1829 30.9224 1.70526 -0.0 0.0 -0.0 -0.652301 8.36196 -0.157018 1.8073 -4.23843 53.9549 2.48501 -50.9034 1.18286 -39.3441 -2.88168 4.01315 -3.5108 12.2635 -17.4156 -0.0 0.0 -0.0 8.18453 25.4679 -14.8866 -19.2009 27.0421 -69.2244 0.832914 22.4209 -0.165082 3.61372 -0.113233 0.447613 5.40325 -31.4451 -46.2304 0.0 0.0 0.0 -24.9071 14.0643 10.1494 1.07674 -0.045834 -0.15887 40.729 6.86352 -4.92325 -37.3534 0.0 0.0 -0.0 0.0 -0.0 27.1688 6.51133 -19.838 4.86312 0.23059 0.710267 -4.48139 -4.11435 -0.664148 34.0708 -0.0 -0.0 0.0 0.0 0.0 
1347.98403666 701.069 -1474.65307112 -2.96523182091 57.3424536454 5.35327300123 0.738062 0.31346 1.22856 0.738872 0.234654 1.24601 0.744308 -0.0159848 1.26781 0.742112 0.184427 1.25443 -9.23624 15.6987 -3.81244 -9.45412 32.075 0.130973 -0.0 0.0 -0.0 -0.446993 9.50321 0.350493 0.597822 -3.70537 54.9141 2.43104 -50.2866 1.14116 -40.7411 -3.03032 4.11337 -3.43459 11.283 -17.4643 -0.0 0.0 -0.0 8.10631 24.6425 -14.7962 -18.5364 26.4976 -67.9733 0.894444 23.897 -0.189283 4.9224 -0.14724 0.611322 5.42151 -30.5922 -46.4327 0.0 0.0 0.0 -24.6787 15.4285 10.624 -1.00261 0.0399827 0.148666 39.2238 6.83953 -4.79227 -38.1118 0.0 0.0 -0.0 0.0 -0.0 26.9045 6.17533 -19.6671 3.53892 0.161827 0.5188 -2.71003 -5.10184 -0.399709 35.7459 -0.0 -0.0 0.0 0.0 0.0 
1322.24976919 698.954 -1475.44340881 -3.4168322906 56.6022549302 4.98372761169 0.769309 0.201033 1.31528 0.770264 0.116938 1.32541 0.773275 -0.146423 1.32247 0.770839 0.0642551 1.329 -10.0763 15.7987 -4.16164 -10.4069 32.5412 0.090775 -0.0 0.0 -0.0 -0.638572 10.4865 0.147693 -0.595743 -3.28705 57.3547 2.35416 -49.3798 1.08241 -40.7644 -3.03283 4.11502 -3.07714 11.1682 -15.1488 -0.0 0.0 -0.0 8.19202 23.8711 -15.0594 -17.7607 26.1246 -67.1845 0.870402 23.3241 -0.179654 4.30688 -0.131711 0.534229 5.33401 -31.1209 -45.6706 0.0 0.0 0.0 -25.6106 15.8062 11.6871 -1.35058 0.0532497 0.20042 39.163 5.85982 -4.78507 -39.1099 0.0 0.0 -0.0 0.0 -0.0 26.5858 4.40707 -18.413 -0.286253 -0.0116813 -0.0423754 -2.44667 -6.03521 -0.36036 37.3385 -0.0 -0.0 0.0 0.0 0.0 
1322.25795609 698.954 -1476.15019548 -3.34519893735 55.790450235 4.89752310714 0.769309 0.201033 1.31528 0.770264 0.116938 1.32541 0.773275 -0.146423 1.32247 0.770839 0.0642551 1.329 -10.0763 15.7987 -4.16164 -10.4069 32.5412 0.090775 -0.0 0.0 -0.0 -0.638572 10.4865 0.147693 -0.595743 -3.28705 57.3547 2.35416 -49.3798 1.08241 -40.7644 -3.03283 4.11502 -3.07714 11.1682 -15.1488 -0.0 0.0 -0.0 8.19202 23.8711 -15.0594 -17.7607 26.1246 -67.1845 0.870402 23.3241 -0.179654 4.30688 -0.131711 0.534229 5.33401 -31.1209 -45.6706 0.0 0.0 0.0 -25.6106 15.8062 11.6871 -1.35058 0.0532497 0.20042 39.163 5.85982 -4.78507 -39.1099 0.0 0.0 -0.0 0.0 -0.0 26.5858 4.40707 -18.413 -0.286253 -0.0116813 -0.0423754 -2.44667 -6.03521 -0.36036 37.3385 -0.0 -0.0 0.0 0.0 0.0 
1295.33673542 695.887 -1476.82447438 -2.41208865635 57.3086997516 3.57442680825 0.751336 0.0387934 1.36787 0.752375 -0.048318 1.36757 0.751461 -0.3173 1.33113 0.749003 -0.103111 1.36453 -10.967 15.9991 -3.78257 -11.4363 32.7119 0.814168 -0.0 0.0 -0.0 -0.281012 10.9643 0.819226 -2.06564 -3.34791 57.9137 2.23937 -47.9603 0.996202 -40.7138 -3.0274 4.11145 -2.98375 11.0765 -14.5813 -0.0 0.0 -0.0 8.12916 23.3714 -14.9673 -17.6107 26.3197 -67.3039 0.959752 25.4275 -0.216536 5.36593 -0.157915 0.666974 5.42728 -30.3168 -46.4945 0.0 0.0 0.0 -27.2655 16.0069 11.7791 -3.05749 0.113757 0.455382 37.5441 5.93533 -4.63908 -39.1929 0.0 0.0 -0.0 0.0 -0.0 27.2044 4.90979 -17.4985 -5.87231 -0.196853 -0.879336 0.632755 -6.91787 0.0924879 38.1252 -0.0 -0.0 0.0 0.0 0.0 
